<svg id="Capa_1" enable-background="new 0 0 512 512" height="512" viewBox="0 0 512 512" width="512" xmlns="http://www.w3.org/2000/svg"><g><path d="m417.64 504.5h-323.279c-4.183 0-7.574-3.391-7.574-7.574v-338.552h338.427v338.552c-.001 4.183-3.391 7.574-7.574 7.574z" fill="#f6f1f1"/><path d="m86.787 158.374v17.748h301.261c9.393 0 17.007 7.614 17.007 17.007v311.371h12.585c4.183 0 7.574-3.391 7.574-7.574v-338.552z" fill="#FF00FF
"/><path d="m349.897 7.5h-255.536c-4.183 0-7.574 3.391-7.574 7.574v143.3h338.427v-103.604z" fill="#FF00FF"/><path d="m366.956 67.071 29.988 19.927c5.066 3.367 8.111 9.046 8.111 15.129v56.246h20.159v-103.603z" fill="#da4a54"/><path d="m349.897 7.5 15.241 57.373c.904 3.404 4.416 5.413 7.808 4.467l52.268-14.571z" fill="#FF00FF
"/><g><path d="m286.218 54.809c4.143 0 7.5-3.358 7.5-7.5s-3.357-7.5-7.5-7.5h-28.881c-4.142 0-7.5 3.358-7.5 7.5v71.257c0 4.142 3.358 7.5 7.5 7.5 4.143 0 7.5-3.358 7.5-7.5v-28.804h19.087c4.143 0 7.5-3.358 7.5-7.5s-3.357-7.5-7.5-7.5h-19.087v-19.953z"/><path d="m181.482 116.635c0 5.507 3.55 8.632 7.641 8.632h.028c.596-.002 14.655-.057 20.268-.154 20.236-.354 34.923-18.091 34.923-42.176 0-25.319-14.319-42.33-35.631-42.33h-19.729c-1.992 0-3.901.792-5.308 2.202s-2.196 3.321-2.192 5.312v.056.002zm27.229-61.028c15.211 0 20.631 14.118 20.631 27.33 0 12.92-6.316 26.936-20.185 27.178-2.866.05-8.139.089-12.56.115-.027-8.226-.065-21.084-.065-27.37 0-5.245-.022-18.702-.037-27.253z"/><path d="m129.453 39.546c-4.127 0-7.5 3.366-7.5 7.5v71.783c0 4.142 3.358 7.5 7.5 7.5s7.5-3.358 7.5-7.5v-23.722c4.367-.023 9.608-.047 12.487-.047 15.524 0 28.154-12.452 28.154-27.757s-12.63-27.757-28.154-27.757zm33.141 27.757c0 6.915-6.024 12.757-13.154 12.757-2.858 0-8.034.023-12.39.046-.023-4.488-.047-9.873-.047-12.804 0-2.471-.014-8.067-.027-12.757h12.465c7.13.001 13.153 5.843 13.153 12.758z"/><path d="m153.195 194.271c-4.142 0-7.5 3.358-7.5 7.5v259.333c0 4.143 3.358 7.5 7.5 7.5h205.611c4.143 0 7.5-3.357 7.5-7.5v-259.333c0-4.142-3.357-7.5-7.5-7.5zm7.5 161.153v-17.727h190.611v17.727zm190.61 15v17.727h-190.61v-17.727zm-190.61-47.726v-17.727h190.611v17.727zm94.355-32.727h-94.355v-17.727h94.355zm0-32.726h-94.355v-17.727h94.355zm-94.355 145.906h190.611v17.727h-190.611zm190.61-193.88v80.701h-81.255v-80.701zm-96.255 0v15.248h-94.355v-15.248zm-94.355 244.333v-17.727h190.611v17.727z"/><path d="m429.201 48.417-75.316-47.27c-1.196-.75-2.578-1.147-3.988-1.147h-121.992c-4.142 0-7.5 3.358-7.5 7.5s3.358 7.5 7.5 7.5h116.223l13.76 51.799c.956 3.6 3.264 6.6 6.496 8.45 3.194 1.827 6.946 2.329 10.575 1.317l42.754-11.918v86.227h-323.426v-135.8c0-.041.033-.074.074-.074h103.557c4.142 0 7.5-3.358 7.5-7.5s-3.358-7.5-7.5-7.5h-103.557c-8.312 0-15.074 6.762-15.074 15.074v481.853c0 8.312 6.762 15.074 15.074 15.074h323.279c8.312 0 15.074-6.763 15.074-15.074v-37.772c0-4.143-3.357-7.5-7.5-7.5s-7.5 3.357-7.5 7.5v37.772c0 .04-.034.074-.074.074h-323.279c-.041 0-.074-.033-.074-.074v-331.054h323.427v263.293c0 4.143 3.357 7.5 7.5 7.5s7.5-3.357 7.5-7.5v-374.397c0-2.581-1.328-4.98-3.513-6.353zm-57.121 13.379-10.048-37.826 44.823 28.132z"/></g></g></svg>